<?xml version="1.0" encoding="UTF-8" standalone="no"?>
<svg
   xmlns:osb="http://www.openswatchbook.org/uri/2009/osb"
   xmlns:dc="http://purl.org/dc/elements/1.1/"
   xmlns:cc="http://creativecommons.org/ns#"
   xmlns:rdf="http://www.w3.org/1999/02/22-rdf-syntax-ns#"
   xmlns:svg="http://www.w3.org/2000/svg"
   xmlns="http://www.w3.org/2000/svg"
   xmlns:sodipodi="http://sodipodi.sourceforge.net/DTD/sodipodi-0.dtd"
   xmlns:inkscape="http://www.inkscape.org/namespaces/inkscape"
   aria-hidden="true"
   focusable="false"
   data-prefix="fas"
   data-icon="stream"
   class="svg-inline--fa fa-stream fa-w-16"
   role="img"
   viewBox="0 0 512 512"
   version="1.1"
   id="svg122"
   sodipodi:docname="logo-v5.svg"
   inkscape:version="1.0 (4035a4fb49, 2020-05-01)"
   inkscape:export-filename="C:\Projects\dvml\docs\images\logo-512.png"
   inkscape:export-xdpi="96"
   inkscape:export-ydpi="96">
  <metadata
     id="metadata128">
    <rdf:RDF>
      <cc:Work
         rdf:about="">
        <dc:format>image/svg+xml</dc:format>
        <dc:type
           rdf:resource="http://purl.org/dc/dcmitype/StillImage" />
        <dc:title />
      </cc:Work>
    </rdf:RDF>
  </metadata>
  <defs
     id="defs126">
    <linearGradient
       id="linearGradient3457"
       osb:paint="solid">
      <stop
         style="stop-color:#000000;stop-opacity:1;"
         offset="0"
         id="stop3455" />
    </linearGradient>
    <linearGradient
       id="linearGradient2995"
       osb:paint="solid">
      <stop
         style="stop-color:#f9f9f9;stop-opacity:1;"
         offset="0"
         id="stop2993" />
    </linearGradient>
    <linearGradient
       id="linearGradient2963"
       osb:paint="solid">
      <stop
         style="stop-color:#000000;stop-opacity:1;"
         offset="0"
         id="stop2961" />
    </linearGradient>
    <linearGradient
       id="linearGradient983"
       osb:paint="solid">
      <stop
         style="stop-color:#f9f9f9;stop-opacity:1;"
         offset="0"
         id="stop981" />
    </linearGradient>
    <filter
       inkscape:label="Bloom"
       inkscape:menu="Bevels"
       inkscape:menu-tooltip="Soft, cushion-like bevel with matte highlights"
       style="color-interpolation-filters:sRGB;"
       id="filter3047">
      <feGaussianBlur
         result="result1"
         in="SourceAlpha"
         stdDeviation="2.2"
         id="feGaussianBlur3023" />
      <feSpecularLighting
         result="result0"
         specularExponent="18.1"
         specularConstant="2"
         surfaceScale="5"
         id="feSpecularLighting3027"
         kernelUnitLength="0.01">
        <feDistantLight
           azimuth="225"
           elevation="24"
           id="feDistantLight3025" />
      </feSpecularLighting>
      <feComposite
         result="result6"
         operator="in"
         in2="SourceAlpha"
         id="feComposite3029" />
      <feMorphology
         radius="5.7"
         operator="dilate"
         id="feMorphology3031" />
      <feGaussianBlur
         result="result11"
         stdDeviation="5.7"
         id="feGaussianBlur3033" />
      <feDiffuseLighting
         surfaceScale="5"
         result="result3"
         diffuseConstant="2"
         in="result1"
         id="feDiffuseLighting3037">
        <feDistantLight
           elevation="25"
           azimuth="225"
           id="feDistantLight3035" />
      </feDiffuseLighting>
      <feBlend
         result="result7"
         mode="multiply"
         in="result3"
         in2="SourceGraphic"
         id="feBlend3039" />
      <feComposite
         in="result7"
         operator="in"
         in2="SourceAlpha"
         result="result91"
         id="feComposite3041" />
      <feBlend
         result="result9"
         mode="lighten"
         in="result6"
         in2="result91"
         id="feBlend3043" />
      <feComposite
         in="result11"
         in2="result9"
         id="feComposite3045" />
    </filter>
    <filter
       style="color-interpolation-filters:sRGB;"
       inkscape:label="Drop Shadow"
       id="filter3821">
      <feFlood
         flood-opacity="0.498039"
         flood-color="rgb(0,0,0)"
         result="flood"
         id="feFlood3811" />
      <feComposite
         in="flood"
         in2="SourceGraphic"
         operator="in"
         result="composite1"
         id="feComposite3813" />
      <feGaussianBlur
         in="composite1"
         stdDeviation="3"
         result="blur"
         id="feGaussianBlur3815" />
      <feOffset
         dx="-4.1509433962264097"
         dy="-2.6415094339622698"
         result="offset"
         id="feOffset3817" />
      <feComposite
         in="SourceGraphic"
         in2="offset"
         operator="over"
         result="composite2"
         id="feComposite3819" />
    </filter>
  </defs>
  <sodipodi:namedview
     inkscape:document-rotation="0"
     pagecolor="#ffffff"
     bordercolor="#666666"
     borderopacity="1"
     objecttolerance="10"
     gridtolerance="10"
     guidetolerance="10"
     inkscape:pageopacity="0"
     inkscape:pageshadow="2"
     inkscape:window-width="1920"
     inkscape:window-height="1017"
     id="namedview124"
     showgrid="false"
     inkscape:pagecheckerboard="true"
     inkscape:zoom="0.8076172"
     inkscape:cx="-8.3163719"
     inkscape:cy="153.49339"
     inkscape:window-x="-8"
     inkscape:window-y="32"
     inkscape:window-maximized="1"
     inkscape:current-layer="svg122" />
  <g
     transform="matrix(0.95773446,0,0,0.95773446,10.184986,-7.94117)"
     id="g120"
     style="stroke-width:18.06346197;stroke-miterlimit:4;stroke-dasharray:none;stroke:#ffffff;stroke-opacity:1;stroke-linejoin:round">
    <path
       sodipodi:nodetypes="sssssssssssssssssssssssssss"
       fill="#000000"
       stroke="#ffffff"
       stroke-width="6"
       d="m 16,155.1474 h 416 c 8.84,0 16,-7.16 16,-16 V 75.147399 c 0,-8.84 -7.16,-16 -16,-16 H 16 c -8.84,0 -16,7.16 -16,16 V 139.1474 c 0,8.84 7.16,16 16,16 z m 473.73522,48.67608 H 73.735216 c -8.84,0 -16,7.16 -16,16 v 64 c 0,8.84 7.16,16 16,16 H 489.73522 c 8.84,0 16,-7.16 16,-16 v -64 c 0,-8.84 -7.16,-16 -16,-16 z M 432,354.76434 H 16 c -8.84,0 -16,7.16 -16,16 v 64 c 0,8.84 7.16,16 16,16 h 416 c 8.84,0 16,-7.16 16,-16 v -64 c 0,-8.84 -7.16,-16 -16,-16 z"
       id="path118"
       style="stroke-width:18.06346197;stroke-miterlimit:4;stroke-dasharray:none;stroke:#ffffff;stroke-opacity:1;stroke-linejoin:round" />
  </g>
  <circle
     style="fill:#337ab7;fill-opacity:1;stroke:none;stroke-width:6.01417;stroke-linejoin:round;stroke-miterlimit:4;stroke-dasharray:none;stroke-opacity:1;filter:url(#filter3047)"
     id="path2999"
     cx="335.24545"
     cy="352.58041"
     r="167.08487"
     transform="matrix(1.0370533,0,0,1.0370533,-17.374803,-34.113857)" />
  <g
     transform="matrix(1.0616391,0,0,1.0616391,-39.545477,-35.375244)"
     aria-label="D"
     id="text955"
     style="font-style:normal;font-variant:normal;font-weight:normal;font-stretch:normal;font-size:371.472px;line-height:1.25;font-family:'Script MT Bold';-inkscape-font-specification:'Script MT Bold, Normal';font-variant-ligatures:normal;font-variant-caps:normal;font-variant-numeric:normal;font-variant-east-asian:normal;fill:#f9f9f9;fill-opacity:0.98;stroke:#000000;stroke-width:3.648;stroke-linejoin:round;stroke-miterlimit:4;stroke-dasharray:none;stroke-opacity:0;filter:url(#filter3821)">
    <path
       d="m 306.71286,451.23205 23.21699,9.79467 q 11.24574,4.89733 18.31967,6.71116 7.25531,1.63245 13.78509,1.63245 30.10955,0 48.24783,-39.36007 18.31966,-39.54145 18.31966,-84.70577 0,-47.70368 -23.217,-76.72493 -23.03561,-29.20263 -60.40047,-29.20263 -29.92817,0 -56.22867,21.58455 -26.11913,21.40317 -26.11913,45.3457 0,17.9569 15.23616,24.48668 6.52978,3.08351 6.52978,8.16223 0,5.2601 -14.32924,11.42712 -14.14786,6.16701 -17.23137,6.16701 -9.25052,0 -16.32445,-10.70158 -7.07393,-10.88297 -7.07393,-23.94253 0,-34.64412 36.09518,-65.66058 36.27656,-31.19784 94.31906,-31.19784 55.50314,0 88.51481,30.65369 33.01167,30.47231 33.01167,81.80365 0,39.17868 -20.49626,74.36695 -20.31487,35.18826 -54.95899,55.8659 -34.46273,20.67764 -73.09727,20.67764 -32.46752,0 -60.58186,-14.14786 -22.67285,14.14786 -39.36007,14.14786 -9.4319,0 -15.96168,-5.44148 -6.3484,-5.44149 -6.3484,-13.24095 0,-12.69679 13.24094,-21.40317 13.24095,-8.70637 33.19306,-8.70637 14.14786,0 27.02603,4.53457 11.42712,-9.43191 15.59893,-22.67285 4.1718,-13.24095 8.34361,-46.79677 4.1718,-33.55582 13.05956,-52.78239 8.88775,-19.22658 26.11912,-32.10476 17.41275,-13.05956 35.00688,-15.05477 l 7.07393,9.61329 q -11.24573,11.42711 -16.8686,23.21699 -5.44148,11.78989 -9.97605,50.78719 -4.35319,38.81592 -17.04999,58.40526 -12.51541,19.40796 -38.63453,34.46274 z"
       style="font-style:normal;font-variant:normal;font-weight:normal;font-stretch:normal;font-size:371.472px;font-family:'Script MT Bold';-inkscape-font-specification:'Script MT Bold, Normal';font-variant-ligatures:normal;font-variant-caps:normal;font-variant-numeric:normal;font-variant-east-asian:normal;fill:#f9f9f9;fill-opacity:0.98;stroke:#000000;stroke-width:3.648;stroke-linejoin:round;stroke-miterlimit:4;stroke-dasharray:none;stroke-opacity:0"
       id="path3823" />
  </g>
</svg>
